<?xml version="1.0" encoding="utf-8"?>
<?xml-stylesheet type="text/xsl" href="rss1.xsl"?>
<rss version="2.0" xmlns:atom="http://www.w3.org/2005/Atom" xmlns:content="http://purl.org/rss/1.0/modules/content/" xmlns:dc="http://purl.org/dc/elements/1.1/" xmlns:media="http://search.yahoo.com/mrss/">
<channel>
 <title>Getty</title>
 <link>http://www.gettyimg.com/</link>
 <atom:link href="http://www.gettyimg.com/" rel="self" type="application/rss+xml" />

 
                <item>
                <title><![CDATA[【BLU-RAY】BLU-RAY - Blackpink - The Show (2021) Blu Ray 1080i]]></title>
                <link><![CDATA[https://sharemania.us/threads/blackpink-the-show-2021-blu-ray-1080i.242395/]]></link>
                <description><![CDATA[<article>
<blockquote class="messageText SelectQuoteContainer ugc baseHtml">
BLACKPiNK<br>
Olympic Park Gymnastics Arena<br>
Seoul, South Korea<br>
Recorded: Jan 31, 2021<br>
Released: Jun 1, 2021<br>
<br>
Setlist<br>
<br>
01. OPENING VCR<br>
02. KILL THIS LOVE<br>
03. CRAZY OVER YOU<br>
04. MENT #1<br>
05. HOW YOU LIKE THAT<br>
06. BRIDGE VCR #1<br>
07. DON’T KNOW WHAT TO DO<br>
08. 불장난 (PLAYING WITH FIRE)<br>
09. LOVESICK GIRLS<br>
10. LOVE TO HATE ME<br>
11. YOU NEVER KNOW<br>
12. SOLO<br>
13. GONE<br>
14. BRIDGE VCR #2<br>
15. PRETTY SAVAGE<br>
16. 뚜두뚜두 (DDU-DU DDU-DU)<br>
17. BRIDGE VCR #3<br>
18. 휘파람 (WHISTLE)<br>
19. 마지막처럼 (AS IF IT’S YOUR LAST)<br>
20. 붐바야 (BOOMBAYAH)<br>
21. MENT #2<br>
22. BRIDGE VCR #4<br>
23. FOREVER YOUNG<br>
24. MENT #3 + OUTRO<br>
25. ENDING VCR<br>
<br>
<img src="https://i.imgur.com/jfJxVLJ.jpeg" class="bbCodeImage LbImage" alt="[​IMG]" data-url="https://i.imgur.com/jfJxVLJ.jpeg" style=""><br>
<img src="https://i.imgur.com/8Ec8X2m.jpeg" class="bbCodeImage LbImage" alt="[​IMG]" data-url="https://i.imgur.com/8Ec8X2m.jpeg" style=""><br>
<img src="https://i.imgur.com/jSCJwCp.jpeg" class="bbCodeImage LbImage" alt="[​IMG]" data-url="https://i.imgur.com/jSCJwCp.jpeg" style=""><br>
<img src="https://i.imgur.com/7gB9Tq8.jpeg" class="bbCodeImage LbImage" alt="[​IMG]" data-url="https://i.imgur.com/7gB9Tq8.jpeg" style=""><br>
<br>
<div class="ToggleTriggerAnchor bbCodeSpoilerContainer">
<button type="button" class="button bbCodeSpoilerButton ToggleTrigger Tooltip JsOnly" data-target="> .SpoilerTarget"><span>Spoiler: <span class="SpoilerTitle">Blu Ray Info</span></span></button>
<div class="SpoilerTarget bbCodeSpoilerText">General<br>
Complete name : 00001.mpls<br>
Format : Blu-ray Playlist<br>
File size : 2.29 KiB<br>
Duration : 2 h 3 min<br>
Overall bit rate mode : Variable<br>
Overall bit rate : 3 b/s<br>
Frame rate : 29.970 FPS<br>
<br>
Video #1<br>
ID : 4113 (0x1011)<br>
Menu ID : 1 (0x1)<br>
Format : AVC<br>
Format/Info : Advanced Video Codec<br>
Format profile : High@L4.1<br>
Format settings : CABAC / 4 Ref Frames<br>
Format settings, CABAC : Yes<br>
Format settings, Reference fra : 4 frames<br>
Format settings, Slice count : 4 slices per frame<br>
Codec ID : 27<br>
Duration : 1 h 17 min<br>
Bit rate mode : Variable<br>
Bit rate : 35.1 Mb/s<br>
Maximum bit rate : 37.0 Mb/s<br>
Width : 1 920 pixels<br>
Height : 1 080 pixels<br>
Display aspect ratio : 16:9<br>
Frame rate : 29.970 (30000/1001) FPS<br>
Color space : YUV<br>
Chroma subsampling : 4:2:0<br>
Bit depth : 8 bits<br>
Scan type : MBAFF<br>
Scan type, store method : Interleaved fields<br>
Scan order : Top Field First<br>
Bits/(Pixel*Frame) : 0.565<br>
Time code of first frame : 00:59:59:00<br>
Stream size : 18.9 GiB<br>
format_identifier : HDMV<br>
Source : 00000.m2ts<br>
<br>
Video #2<br>
ID : 4113 (0x1011)<br>
Menu ID : 1 (0x1)<br>
Format : AVC<br>
Format/Info : Advanced Video Codec<br>
Format profile : High@L4.1<br>
Format settings : CABAC / 4 Ref Frames<br>
Format settings, CABAC : Yes<br>
Format settings, Reference fra : 4 frames<br>
Format settings, Slice count : 4 slices per frame<br>
Codec ID : 27<br>
Duration : 43 s 877 ms<br>
Bit rate mode : Variable<br>
Bit rate : 34.2 Mb/s<br>
Maximum bit rate : 37.0 Mb/s<br>
Width : 1 920 pixels<br>
Height : 1 080 pixels<br>
Display aspect ratio : 16:9<br>
Frame rate : 29.970 (30000/1001) FPS<br>
Color space : YUV<br>
Chroma subsampling : 4:2:0<br>
Bit depth : 8 bits<br>
Scan type : MBAFF<br>
Scan type, store method : Interleaved fields<br>
Scan order : Top Field First<br>
Bits/(Pixel*Frame) : 0.551<br>
Time code of first frame : 00:59:59:00<br>
Stream size : 179 MiB<br>
format_identifier : HDMV<br>
Source : 00001.m2ts<br>
<br>
Video #3<br>
ID : 4113 (0x1011)<br>
Menu ID : 1 (0x1)<br>
Format : AVC<br>
Format/Info : Advanced Video Codec<br>
Format profile : High@L4.1<br>
Format settings : CABAC / 4 Ref Frames<br>
Format settings, CABAC : Yes<br>
Format settings, Reference fra : 4 frames<br>
Format settings, Slice count : 4 slices per frame<br>
Codec ID : 27<br>
Duration : 3 min 18 s<br>
Bit rate mode : Variable<br>
Bit rate : 34.1 Mb/s<br>
Maximum bit rate : 37.0 Mb/s<br>
Width : 1 920 pixels<br>
Height : 1 080 pixels<br>
Display aspect ratio : 16:9<br>
Frame rate : 29.970 (30000/1001) FPS<br>
Color space : YUV<br>
Chroma subsampling : 4:2:0<br>
Bit depth : 8 bits<br>
Scan type : MBAFF<br>
Scan type, store method : Interleaved fields<br>
Scan order : Top Field First<br>
Bits/(Pixel*Frame) : 0.549<br>
Time code of first frame : 00:59:59:00<br>
Stream size : 808 MiB<br>
format_identifier : HDMV<br>
Source : 00002.m2ts<br>
<br>
Video #4<br>
ID : 4113 (0x1011)<br>
Menu ID : 1 (0x1)<br>
Format : AVC<br>
Format/Info : Advanced Video Codec<br>
Format profile : High@L4.1<br>
Format settings : CABAC / 4 Ref Frames<br>
Format settings, CABAC : Yes<br>
Format settings, Reference fra : 4 frames<br>
Format settings, Slice count : 4 slices per frame<br>
Codec ID : 27<br>
Duration : 1 min 27 s<br>
Bit rate mode : Variable<br>
Bit rate : 34.5 Mb/s<br>
Maximum bit rate : 37.0 Mb/s<br>
Width : 1 920 pixels<br>
Height : 1 080 pixels<br>
Display aspect ratio : 16:9<br>
Frame rate : 29.970 (30000/1001) FPS<br>
Color space : YUV<br>
Chroma subsampling : 4:2:0<br>
Bit depth : 8 bits<br>
Scan type : MBAFF<br>
Scan type, store method : Interleaved fields<br>
Scan order : Top Field First<br>
Bits/(Pixel*Frame) : 0.555<br>
Time code of first frame : 00:59:59:00<br>
Stream size : 361 MiB<br>
format_identifier : HDMV<br>
Source : 00003.m2ts<br>
<br>
Video #5<br>
ID : 4113 (0x1011)<br>
Menu ID : 1 (0x1)<br>
Format : AVC<br>
Format/Info : Advanced Video Codec<br>
Format profile : High@L4.1<br>
Format settings : CABAC / 4 Ref Frames<br>
Format settings, CABAC : Yes<br>
Format settings, Reference fra : 4 frames<br>
Format settings, Slice count : 4 slices per frame<br>
Codec ID : 27<br>
Duration : 3 min 33 s<br>
Bit rate mode : Variable<br>
Bit rate : 35.3 Mb/s<br>
Maximum bit rate : 37.0 Mb/s<br>
Width : 1 920 pixels<br>
Height : 1 080 pixels<br>
Display aspect ratio : 16:9<br>
Frame rate : 29.970 (30000/1001) FPS<br>
Color space : YUV<br>
Chroma subsampling : 4:2:0<br>
Bit depth : 8 bits<br>
Scan type : MBAFF<br>
Scan type, store method : Interleaved fields<br>
Scan order : Top Field First<br>
Bits/(Pixel*Frame) : 0.568<br>
Time code of first frame : 00:59:59:00<br>
Stream size : 899 MiB<br>
format_identifier : HDMV<br>
Source : 00004.m2ts<br>
<br>
Video #6<br>
ID : 4113 (0x1011)<br>
Menu ID : 1 (0x1)<br>
Format : AVC<br>
Format/Info : Advanced Video Codec<br>
Format profile : High@L4.1<br>
Format settings : CABAC / 4 Ref Frames<br>
Format settings, CABAC : Yes<br>
Format settings, Reference fra : 4 frames<br>
Format settings, Slice count : 4 slices per frame<br>
Codec ID : 27<br>
Duration : 4 min 20 s<br>
Bit rate mode : Variable<br>
Bit rate : 35.1 Mb/s<br>
Maximum bit rate : 37.0 Mb/s<br>
Width : 1 920 pixels<br>
Height : 1 080 pixels<br>
Display aspect ratio : 16:9<br>
Frame rate : 29.970 (30000/1001) FPS<br>
Color space : YUV<br>
Chroma subsampling : 4:2:0<br>
Bit depth : 8 bits<br>
Scan type : MBAFF<br>
Scan type, store method : Interleaved fields<br>
Scan order : Top Field First<br>
Bits/(Pixel*Frame) : 0.564<br>
Time code of first frame : 00:59:59:00<br>
Stream size : 1.06 GiB<br>
format_identifier : HDMV<br>
Source : 00005.m2ts<br>
<br>
Video #7<br>
ID : 4113 (0x1011)<br>
Menu ID : 1 (0x1)<br>
Format : AVC<br>
Format/Info : Advanced Video Codec<br>
Format profile : High@L4.1<br>
Format settings : CABAC / 4 Ref Frames<br>
Format settings, CABAC : Yes<br>
Format settings, Reference fra : 4 frames<br>
Format settings, Slice count : 4 slices per frame<br>
Codec ID : 27<br>
Duration : 3 min 3 s<br>
Bit rate mode : Variable<br>
Bit rate : 34.5 Mb/s<br>
Maximum bit rate : 37.0 Mb/s<br>
Width : 1 920 pixels<br>
Height : 1 080 pixels<br>
Display aspect ratio : 16:9<br>
Frame rate : 29.970 (30000/1001) FPS<br>
Color space : YUV<br>
Chroma subsampling : 4:2:0<br>
Bit depth : 8 bits<br>
Scan type : MBAFF<br>
Scan type, store method : Interleaved fields<br>
Scan order : Top Field First<br>
Bits/(Pixel*Frame) : 0.556<br>
Time code of first frame : 00:59:59:00<br>
Stream size : 757 MiB<br>
format_identifier : HDMV<br>
Source : 00006.m2ts<br>
<br>
Video #8<br>
ID : 4113 (0x1011)<br>
Menu ID : 1 (0x1)<br>
Format : AVC<br>
Format/Info : Advanced Video Codec<br>
Format profile : High@L4.1<br>
Format settings : CABAC / 4 Ref Frames<br>
Format settings, CABAC : Yes<br>
Format settings, Reference fra : 4 frames<br>
Format settings, Slice count : 4 slices per frame<br>
Codec ID : 27<br>
Duration : 3 min 14 s<br>
Bit rate mode : Variable<br>
Bit rate : 34.4 Mb/s<br>
Maximum bit rate : 37.0 Mb/s<br>
Width : 1 920 pixels<br>
Height : 1 080 pixels<br>
Display aspect ratio : 16:9<br>
Frame rate : 29.970 (30000/1001) FPS<br>
Color space : YUV<br>
Chroma subsampling : 4:2:0<br>
Bit depth : 8 bits<br>
Scan type : MBAFF<br>
Scan type, store method : Interleaved fields<br>
Scan order : Top Field First<br>
Bits/(Pixel*Frame) : 0.553<br>
Time code of first frame : 00:59:59:00<br>
Stream size : 797 MiB<br>
format_identifier : HDMV<br>
Source : 00007.m2ts<br>
<br>
Video #9<br>
ID : 4113 (0x1011)<br>
Menu ID : 1 (0x1)<br>
Format : AVC<br>
Format/Info : Advanced Video Codec<br>
Format profile : High@L4.1<br>
Format settings : CABAC / 4 Ref Frames<br>
Format settings, CABAC : Yes<br>
Format settings, Reference fra : 4 frames<br>
Format settings, Slice count : 4 slices per frame<br>
Codec ID : 27<br>
Duration : 3 min 18 s<br>
Bit rate mode : Variable<br>
Bit rate : 34.4 Mb/s<br>
Maximum bit rate : 37.0 Mb/s<br>
Width : 1 920 pixels<br>
Height : 1 080 pixels<br>
Display aspect ratio : 16:9<br>
Frame rate : 29.970 (30000/1001) FPS<br>
Color space : YUV<br>
Chroma subsampling : 4:2:0<br>
Bit depth : 8 bits<br>
Scan type : MBAFF<br>
Scan type, store method : Interleaved fields<br>
Scan order : Top Field First<br>
Bits/(Pixel*Frame) : 0.553<br>
Time code of first frame : 00:59:59:00<br>
Stream size : 813 MiB<br>
format_identifier : HDMV<br>
Source : 00008.m2ts<br>
<br>
Video #10<br>
ID : 4113 (0x1011)<br>
Menu ID : 1 (0x1)<br>
Format : AVC<br>
Format/Info : Advanced Video Codec<br>
Format profile : High@L4.1<br>
Format settings : CABAC / 4 Ref Frames<br>
Format settings, CABAC : Yes<br>
Format settings, Reference fra : 4 frames<br>
Format settings, Slice count : 4 slices per frame<br>
Codec ID : 27<br>
Duration : 3 min 18 s<br>
Bit rate mode : Variable<br>
Bit rate : 34.7 Mb/s<br>
Maximum bit rate : 37.0 Mb/s<br>
Width : 1 920 pixels<br>
Height : 1 080 pixels<br>
Display aspect ratio : 16:9<br>
Frame rate : 29.970 (30000/1001) FPS<br>
Color space : YUV<br>
Chroma subsampling : 4:2:0<br>
Bit depth : 8 bits<br>
Scan type : MBAFF<br>
Scan type, store method : Interleaved fields<br>
Scan order : Top Field First<br>
Bits/(Pixel*Frame) : 0.558<br>
Time code of first frame : 00:59:59:00<br>
Stream size : 819 MiB<br>
format_identifier : HDMV<br>
Source : 00009.m2ts<br>
<br>
Video #11<br>
ID : 4113 (0x1011)<br>
Menu ID : 1 (0x1)<br>
Format : AVC<br>
Format/Info : Advanced Video Codec<br>
Format profile : High@L4.1<br>
Format settings : CABAC / 4 Ref Frames<br>
Format settings, CABAC : Yes<br>
Format settings, Reference fra : 4 frames<br>
Format settings, Slice count : 4 slices per frame<br>
Codec ID : 27<br>
Duration : 3 min 18 s<br>
Bit rate mode : Variable<br>
Bit rate : 34.2 Mb/s<br>
Maximum bit rate : 37.0 Mb/s<br>
Width : 1 920 pixels<br>
Height : 1 080 pixels<br>
Display aspect ratio : 16:9<br>
Frame rate : 29.970 (30000/1001) FPS<br>
Color space : YUV<br>
Chroma subsampling : 4:2:0<br>
Bit depth : 8 bits<br>
Scan type : MBAFF<br>
Scan type, store method : Interleaved fields<br>
Scan order : Top Field First<br>
Bits/(Pixel*Frame) : 0.551<br>
Time code of first frame : 00:59:59:00<br>
Stream size : 808 MiB<br>
format_identifier : HDMV<br>
Source : 00010.m2ts<br>
<br>
Video #12<br>
ID : 4113 (0x1011)<br>
Menu ID : 1 (0x1)<br>
Format : AVC<br>
Format/Info : Advanced Video Codec<br>
Format profile : High@L4.1<br>
Format settings : CABAC / 4 Ref Frames<br>
Format settings, CABAC : Yes<br>
Format settings, Reference fra : 4 frames<br>
Format settings, Slice count : 4 slices per frame<br>
Codec ID : 27<br>
Duration : 3 min 18 s<br>
Bit rate mode : Variable<br>
Bit rate : 34.7 Mb/s<br>
Maximum bit rate : 37.0 Mb/s<br>
Width : 1 920 pixels<br>
Height : 1 080 pixels<br>
Display aspect ratio : 16:9<br>
Frame rate : 29.970 (30000/1001) FPS<br>
Color space : YUV<br>
Chroma subsampling : 4:2:0<br>
Bit depth : 8 bits<br>
Scan type : MBAFF<br>
Scan type, store method : Interleaved fields<br>
Scan order : Top Field First<br>
Bits/(Pixel*Frame) : 0.558<br>
Time code of first frame : 00:59:59:00<br>
Stream size : 820 MiB<br>
format_identifier : HDMV<br>
Source : 00011.m2ts<br>
<br>
Video #13<br>
ID : 4113 (0x1011)<br>
Menu ID : 1 (0x1)<br>
Format : AVC<br>
Format/Info : Advanced Video Codec<br>
Format profile : High@L4.1<br>
Format settings : CABAC / 4 Ref Frames<br>
Format settings, CABAC : Yes<br>
Format settings, Reference fra : 4 frames<br>
Format settings, Slice count : 4 slices per frame<br>
Codec ID : 27<br>
Duration : 3 min 19 s<br>
Bit rate mode : Variable<br>
Bit rate : 34.6 Mb/s<br>
Maximum bit rate : 37.0 Mb/s<br>
Width : 1 920 pixels<br>
Height : 1 080 pixels<br>
Display aspect ratio : 16:9<br>
Frame rate : 29.970 (30000/1001) FPS<br>
Color space : YUV<br>
Chroma subsampling : 4:2:0<br>
Bit depth : 8 bits<br>
Scan type : MBAFF<br>
Scan type, store method : Interleaved fields<br>
Scan order : Top Field First<br>
Bits/(Pixel*Frame) : 0.557<br>
Time code of first frame : 00:59:59:00<br>
Stream size : 825 MiB<br>
format_identifier : HDMV<br>
Source : 00012.m2ts<br>
<br>
Video #14<br>
ID : 4113 (0x1011)<br>
Menu ID : 1 (0x1)<br>
Format : AVC<br>
Format/Info : Advanced Video Codec<br>
Format profile : High@L4.1<br>
Format settings : CABAC / 4 Ref Frames<br>
Format settings, CABAC : Yes<br>
Format settings, Reference fra : 4 frames<br>
Format settings, Slice count : 4 slices per frame<br>
Codec ID : 27<br>
Duration : 3 min 19 s<br>
Bit rate mode : Variable<br>
Bit rate : 34.5 Mb/s<br>
Maximum bit rate : 37.0 Mb/s<br>
Width : 1 920 pixels<br>
Height : 1 080 pixels<br>
Display aspect ratio : 16:9<br>
Frame rate : 29.970 (30000/1001) FPS<br>
Color space : YUV<br>
Chroma subsampling : 4:2:0<br>
Bit depth : 8 bits<br>
Scan type : MBAFF<br>
Scan type, store method : Interleaved fields<br>
Scan order : Top Field First<br>
Bits/(Pixel*Frame) : 0.555<br>
Time code of first frame : 00:59:59:00<br>
Stream size : 821 MiB<br>
format_identifier : HDMV<br>
Source : 00013.m2ts<br>
<br>
Video #15<br>
ID : 4113 (0x1011)<br>
Menu ID : 1 (0x1)<br>
Format : AVC<br>
Format/Info : Advanced Video Codec<br>
Format profile : High@L4.1<br>
Format settings : CABAC / 4 Ref Frames<br>
Format settings, CABAC : Yes<br>
Format settings, Reference fra : 4 frames<br>
Format settings, Slice count : 4 slices per frame<br>
Codec ID : 27<br>
Duration : 3 min 19 s<br>
Bit rate mode : Variable<br>
Bit rate : 34.8 Mb/s<br>
Maximum bit rate : 37.0 Mb/s<br>
Width : 1 920 pixels<br>
Height : 1 080 pixels<br>
Display aspect ratio : 16:9<br>
Frame rate : 29.970 (30000/1001) FPS<br>
Color space : YUV<br>
Chroma subsampling : 4:2:0<br>
Bit depth : 8 bits<br>
Scan type : MBAFF<br>
Scan type, store method : Interleaved fields<br>
Scan order : Top Field First<br>
Bits/(Pixel*Frame) : 0.560<br>
Time code of first frame : 00:59:59:00<br>
Stream size : 829 MiB<br>
format_identifier : HDMV<br>
Source : 00014.m2ts<br>
<br>
Video #16<br>
ID : 4113 (0x1011)<br>
Menu ID : 1 (0x1)<br>
Format : AVC<br>
Format/Info : Advanced Video Codec<br>
Format profile : High@L4.1<br>
Format settings : CABAC / 4 Ref Frames<br>
Format settings, CABAC : Yes<br>
Format settings, Reference fra : 4 frames<br>
Format settings, Slice count : 4 slices per frame<br>
Codec ID : 27<br>
Duration : 3 min 19 s<br>
Bit rate mode : Variable<br>
Bit rate : 34.6 Mb/s<br>
Maximum bit rate : 37.0 Mb/s<br>
Width : 1 920 pixels<br>
Height : 1 080 pixels<br>
Display aspect ratio : 16:9<br>
Frame rate : 29.970 (30000/1001) FPS<br>
Color space : YUV<br>
Chroma subsampling : 4:2:0<br>
Bit depth : 8 bits<br>
Scan type : MBAFF<br>
Scan type, store method : Interleaved fields<br>
Scan order : Top Field First<br>
Bits/(Pixel*Frame) : 0.557<br>
Time code of first frame : 00:59:59:00<br>
Stream size : 824 MiB<br>
format_identifier : HDMV<br>
Source : 00015.m2ts<br>
<br>
Video #17<br>
ID : 4113 (0x1011)<br>
Menu ID : 1 (0x1)<br>
Format : AVC<br>
Format/Info : Advanced Video Codec<br>
Format profile : High@L4.1<br>
Format settings : CABAC / 4 Ref Frames<br>
Format settings, CABAC : Yes<br>
Format settings, Reference fra : 4 frames<br>
Format settings, Slice count : 4 slices per frame<br>
Codec ID : 27<br>
Duration : 9 s 676 ms<br>
Bit rate mode : Variable<br>
Bit rate : 15.2 Mb/s<br>
Maximum bit rate : 37.0 Mb/s<br>
Width : 1 920 pixels<br>
Height : 1 080 pixels<br>
Display aspect ratio : 16:9<br>
Frame rate : 29.970 (30000/1001) FPS<br>
Color space : YUV<br>
Chroma subsampling : 4:2:0<br>
Bit depth : 8 bits<br>
Scan type : MBAFF<br>
Scan type, store method : Interleaved fields<br>
Scan order : Top Field First<br>
Bits/(Pixel*Frame) : 0.245<br>
Time code of first frame : 00:59:59:00<br>
Stream size : 17.5 MiB<br>
format_identifier : HDMV<br>
Source : 00016.m2ts<br>
<br>
Audio #1<br>
ID : 4352 (0x1100)<br>
Menu ID : 1 (0x1)<br>
Format : PCM<br>
Format settings : Big / Signed<br>
Muxing mode : Blu-ray<br>
Codec ID : 128<br>
Duration : 1 h 17 min<br>
Bit rate mode : Constant<br>
Bit rate : 2 304 kb/s<br>
Channel(s) : 2 channels<br>
Channel layout : L R<br>
Sampling rate : 48.0 kHz<br>
Bit depth : 24 bits<br>
Stream size : 1.24 GiB<br>
Language : Korean<br>
format_identifier : HDMV<br>
Source : 00000.m2ts<br>
<br>
Audio #2<br>
ID : 4352 (0x1100)<br>
Menu ID : 1 (0x1)<br>
Format : PCM<br>
Format settings : Big / Signed<br>
Muxing mode : Blu-ray<br>
Codec ID : 128<br>
Duration : 43 s 875 ms<br>
Bit rate mode : Constant<br>
Bit rate : 2 304 kb/s<br>
Channel(s) : 2 channels<br>
Channel layout : L R<br>
Sampling rate : 48.0 kHz<br>
Bit depth : 24 bits<br>
Stream size : 12.1 MiB<br>
Language : Korean<br>
format_identifier : HDMV<br>
Source : 00001.m2ts<br>
<br>
Audio #3<br>
ID : 4352 (0x1100)<br>
Menu ID : 1 (0x1)<br>
Format : PCM<br>
Format settings : Big / Signed<br>
Muxing mode : Blu-ray<br>
Codec ID : 128<br>
Duration : 3 min 18 s<br>
Bit rate mode : Constant<br>
Bit rate : 2 304 kb/s<br>
Channel(s) : 2 channels<br>
Channel layout : L R<br>
Sampling rate : 48.0 kHz<br>
Bit depth : 24 bits<br>
Stream size : 54.5 MiB<br>
Language : Korean<br>
format_identifier : HDMV<br>
Source : 00002.m2ts<br>
<br>
Audio #4<br>
ID : 4352 (0x1100)<br>
Menu ID : 1 (0x1)<br>
Format : PCM<br>
Format settings : Big / Signed<br>
Muxing mode : Blu-ray<br>
Codec ID : 128<br>
Duration : 1 min 27 s<br>
Bit rate mode : Constant<br>
Bit rate : 2 304 kb/s<br>
Channel(s) : 2 channels<br>
Channel layout : L R<br>
Sampling rate : 48.0 kHz<br>
Bit depth : 24 bits<br>
Stream size : 24.1 MiB<br>
Language : Korean<br>
format_identifier : HDMV<br>
Source : 00003.m2ts<br>
<br>
Audio #5<br>
ID : 4352 (0x1100)<br>
Menu ID : 1 (0x1)<br>
Format : PCM<br>
Format settings : Big / Signed<br>
Muxing mode : Blu-ray<br>
Codec ID : 128<br>
Duration : 3 min 33 s<br>
Bit rate mode : Constant<br>
Bit rate : 2 304 kb/s<br>
Channel(s) : 2 channels<br>
Channel layout : L R<br>
Sampling rate : 48.0 kHz<br>
Bit depth : 24 bits<br>
Stream size : 58.7 MiB<br>
Language : Korean<br>
format_identifier : HDMV<br>
Source : 00004.m2ts<br>
<br>
Audio #6<br>
ID : 4352 (0x1100)<br>
Menu ID : 1 (0x1)<br>
Format : PCM<br>
Format settings : Big / Signed<br>
Muxing mode : Blu-ray<br>
Codec ID : 128<br>
Duration : 4 min 20 s<br>
Bit rate mode : Constant<br>
Bit rate : 2 304 kb/s<br>
Channel(s) : 2 channels<br>
Channel layout : L R<br>
Sampling rate : 48.0 kHz<br>
Bit depth : 24 bits<br>
Stream size : 71.7 MiB<br>
Language : Korean<br>
format_identifier : HDMV<br>
Source : 00005.m2ts<br>
<br>
Audio #7<br>
ID : 4352 (0x1100)<br>
Menu ID : 1 (0x1)<br>
Format : PCM<br>
Format settings : Big / Signed<br>
Muxing mode : Blu-ray<br>
Codec ID : 128<br>
Duration : 3 min 3 s<br>
Bit rate mode : Constant<br>
Bit rate : 2 304 kb/s<br>
Channel(s) : 2 channels<br>
Channel layout : L R<br>
Sampling rate : 48.0 kHz<br>
Bit depth : 24 bits<br>
Stream size : 50.5 MiB<br>
Language : Korean<br>
format_identifier : HDMV<br>
Source : 00006.m2ts<br>
<br>
Audio #8<br>
ID : 4352 (0x1100)<br>
Menu ID : 1 (0x1)<br>
Format : PCM<br>
Format settings : Big / Signed<br>
Muxing mode : Blu-ray<br>
Codec ID : 128<br>
Duration : 3 min 14 s<br>
Bit rate mode : Constant<br>
Bit rate : 2 304 kb/s<br>
Channel(s) : 2 channels<br>
Channel layout : L R<br>
Sampling rate : 48.0 kHz<br>
Bit depth : 24 bits<br>
Stream size : 53.4 MiB<br>
Language : Korean<br>
format_identifier : HDMV<br>
Source : 00007.m2ts<br>
<br>
Audio #9<br>
ID : 4352 (0x1100)<br>
Menu ID : 1 (0x1)<br>
Format : PCM<br>
Format settings : Big / Signed<br>
Muxing mode : Blu-ray<br>
Codec ID : 128<br>
Duration : 3 min 18 s<br>
Bit rate mode : Constant<br>
Bit rate : 2 304 kb/s<br>
Channel(s) : 2 channels<br>
Channel layout : L R<br>
Sampling rate : 48.0 kHz<br>
Bit depth : 24 bits<br>
Stream size : 54.4 MiB<br>
Language : Korean<br>
format_identifier : HDMV<br>
Source : 00008.m2ts<br>
<br>
Audio #10<br>
ID : 4352 (0x1100)<br>
Menu ID : 1 (0x1)<br>
Format : PCM<br>
Format settings : Big / Signed<br>
Muxing mode : Blu-ray<br>
Codec ID : 128<br>
Duration : 3 min 18 s<br>
Bit rate mode : Constant<br>
Bit rate : 2 304 kb/s<br>
Channel(s) : 2 channels<br>
Channel layout : L R<br>
Sampling rate : 48.0 kHz<br>
Bit depth : 24 bits<br>
Stream size : 54.4 MiB<br>
Language : Korean<br>
format_identifier : HDMV<br>
Source : 00009.m2ts<br>
<br>
Audio #11<br>
ID : 4352 (0x1100)<br>
Menu ID : 1 (0x1)<br>
Format : PCM<br>
Format settings : Big / Signed<br>
Muxing mode : Blu-ray<br>
Codec ID : 128<br>
Duration : 3 min 18 s<br>
Bit rate mode : Constant<br>
Bit rate : 2 304 kb/s<br>
Channel(s) : 2 channels<br>
Channel layout : L R<br>
Sampling rate : 48.0 kHz<br>
Bit depth : 24 bits<br>
Stream size : 54.4 MiB<br>
Language : Korean<br>
format_identifier : HDMV<br>
Source : 00010.m2ts<br>
<br>
Audio #12<br>
ID : 4352 (0x1100)<br>
Menu ID : 1 (0x1)<br>
Format : PCM<br>
Format settings : Big / Signed<br>
Muxing mode : Blu-ray<br>
Codec ID : 128<br>
Duration : 3 min 18 s<br>
Bit rate mode : Constant<br>
Bit rate : 2 304 kb/s<br>
Channel(s) : 2 channels<br>
Channel layout : L R<br>
Sampling rate : 48.0 kHz<br>
Bit depth : 24 bits<br>
Stream size : 54.4 MiB<br>
Language : Korean<br>
format_identifier : HDMV<br>
Source : 00011.m2ts<br>
<br>
Audio #13<br>
ID : 4352 (0x1100)<br>
Menu ID : 1 (0x1)<br>
Format : PCM<br>
Format settings : Big / Signed<br>
Muxing mode : Blu-ray<br>
Codec ID : 128<br>
Duration : 3 min 19 s<br>
Bit rate mode : Constant<br>
Bit rate : 2 304 kb/s<br>
Channel(s) : 2 channels<br>
Channel layout : L R<br>
Sampling rate : 48.0 kHz<br>
Bit depth : 24 bits<br>
Stream size : 54.9 MiB<br>
Language : Korean<br>
format_identifier : HDMV<br>
Source : 00012.m2ts<br>
<br>
Audio #14<br>
ID : 4352 (0x1100)<br>
Menu ID : 1 (0x1)<br>
Format : PCM<br>
Format settings : Big / Signed<br>
Muxing mode : Blu-ray<br>
Codec ID : 128<br>
Duration : 3 min 19 s<br>
Bit rate mode : Constant<br>
Bit rate : 2 304 kb/s<br>
Channel(s) : 2 channels<br>
Channel layout : L R<br>
Sampling rate : 48.0 kHz<br>
Bit depth : 24 bits<br>
Stream size : 54.9 MiB<br>
Language : Korean<br>
format_identifier : HDMV<br>
Source : 00013.m2ts<br>
<br>
Audio #15<br>
ID : 4352 (0x1100)<br>
Menu ID : 1 (0x1)<br>
Format : PCM<br>
Format settings : Big / Signed<br>
Muxing mode : Blu-ray<br>
Codec ID : 128<br>
Duration : 3 min 19 s<br>
Bit rate mode : Constant<br>
Bit rate : 2 304 kb/s<br>
Channel(s) : 2 channels<br>
Channel layout : L R<br>
Sampling rate : 48.0 kHz<br>
Bit depth : 24 bits<br>
Stream size : 54.9 MiB<br>
Language : Korean<br>
format_identifier : HDMV<br>
Source : 00014.m2ts<br>
<br>
Audio #16<br>
ID : 4352 (0x1100)<br>
Menu ID : 1 (0x1)<br>
Format : PCM<br>
Format settings : Big / Signed<br>
Muxing mode : Blu-ray<br>
Codec ID : 128<br>
Duration : 3 min 19 s<br>
Bit rate mode : Constant<br>
Bit rate : 2 304 kb/s<br>
Channel(s) : 2 channels<br>
Channel layout : L R<br>
Sampling rate : 48.0 kHz<br>
Bit depth : 24 bits<br>
Stream size : 54.9 MiB<br>
Language : Korean<br>
format_identifier : HDMV<br>
Source : 00015.m2ts<br>
<br>
Audio #17<br>
ID : 4352 (0x1100)<br>
Menu ID : 1 (0x1)<br>
Format : PCM<br>
Format settings : Big / Signed<br>
Muxing mode : Blu-ray<br>
Codec ID : 128<br>
Duration : 9 s 670 ms<br>
Bit rate mode : Constant<br>
Bit rate : 2 304 kb/s<br>
Channel(s) : 2 channels<br>
Channel layout : L R<br>
Sampling rate : 48.0 kHz<br>
Bit depth : 24 bits<br>
Stream size : 2.66 MiB<br>
Language : Korean<br>
format_identifier : HDMV<br>
Source : 00016.m2ts<br>
<br>
Menu<br>
00:00:00.000 : Chapter 1<br>
00:01:33.259 : Chapter 2<br>
00:04:41.948 : Chapter 3<br>
00:07:40.460 : Chapter 4<br>
00:09:09.615 : Chapter 5<br>
00:12:08.961 : Chapter 6<br>
00:13:16.962 : Chapter 7<br>
00:16:39.565 : Chapter 8<br>
00:19:59.198 : Chapter 9<br>
00:23:16.461 : Chapter 10<br>
00:25:38.670 : Chapter 11<br>
00:29:36.174 : Chapter 12<br>
00:32:25.076 : Chapter 13<br>
00:36:46.837 : Chapter 14<br>
00:38:10.655 : Chapter 15<br>
00:41:31.055 : Chapter 16<br>
00:45:35.099 : Chapter 17<br>
00:51:23.280 : Chapter 18<br>
00:54:54.157 : Chapter 19<br>
00:58:38.181 : Chapter 20<br>
01:01:30.920 : Chapter 21<br>
01:06:39.228 : Chapter 22<br>
01:07:13.362 : Chapter 23<br>
01:10:31.227 : Chapter 24<br>
01:13:58.434 : Chapter 25</div>
</div><br>
<div class="bbCodeBlock bbCodeVfcHH HiddenContent">
<div class="attribution type">Hidden Content:</div>
<blockquote>You must reply before you can see the hidden data contained here.</blockquote>
</div>
<div class="messageTextEndMarker">&nbsp;</div>
</blockquote>
</article>]]></description>
                <author><![CDATA[Nero]]></author>
                </item>

                </channel></rss>